<mxfile host="app.diagrams.net" modified="2023-07-02T03:28:20.812Z" agent="Mozilla/5.0 (Windows NT 10.0; Win64; x64) AppleWebKit/537.36 (KHTML, like Gecko) Chrome/114.0.0.0 Safari/537.36" etag="lSvzMHhbM9iUIoA9QT2l" version="21.5.2" type="github">
  <diagram name="第1頁" id="w5f96QGFbsrO_8Lsmh9O">
    <mxGraphModel dx="1235" dy="646" grid="1" gridSize="10" guides="1" tooltips="1" connect="1" arrows="1" fold="1" page="1" pageScale="1" pageWidth="1169" pageHeight="827" math="0" shadow="0">
      <root>
        <mxCell id="0" />
        <mxCell id="1" parent="0" />
        <mxCell id="JB2oRVYy7NncThmiPTXl-46" value="DataBase" style="shape=umlLifeline;perimeter=lifelinePerimeter;whiteSpace=wrap;html=1;container=1;collapsible=0;recursiveResize=0;outlineConnect=0;rounded=1;shadow=0;comic=0;labelBackgroundColor=none;strokeWidth=1;fontFamily=Verdana;fontSize=12;align=center;" vertex="1" parent="1">
          <mxGeometry x="850" y="390" width="100" height="510" as="geometry" />
        </mxCell>
        <mxCell id="JB2oRVYy7NncThmiPTXl-47" value="" style="html=1;points=[];perimeter=orthogonalPerimeter;rounded=0;shadow=0;comic=0;labelBackgroundColor=none;strokeColor=#000000;strokeWidth=1;fillColor=#FFFFFF;fontFamily=Verdana;fontSize=12;fontColor=#000000;align=center;" vertex="1" parent="JB2oRVYy7NncThmiPTXl-46">
          <mxGeometry x="45" y="130" width="10" height="70" as="geometry" />
        </mxCell>
        <mxCell id="JB2oRVYy7NncThmiPTXl-50" value="" style="html=1;points=[];perimeter=orthogonalPerimeter;rounded=0;shadow=0;comic=0;labelBackgroundColor=none;strokeWidth=1;fontFamily=Verdana;fontSize=12;align=center;" vertex="1" parent="JB2oRVYy7NncThmiPTXl-46">
          <mxGeometry x="45" y="420" width="10" height="90" as="geometry" />
        </mxCell>
        <mxCell id="JB2oRVYy7NncThmiPTXl-49" value="" style="html=1;points=[];perimeter=orthogonalPerimeter;rounded=0;shadow=0;comic=0;labelBackgroundColor=none;strokeColor=#000000;strokeWidth=1;fillColor=#FFFFFF;fontFamily=Verdana;fontSize=12;fontColor=#000000;align=center;" vertex="1" parent="JB2oRVYy7NncThmiPTXl-46">
          <mxGeometry x="45" y="250" width="10" height="110" as="geometry" />
        </mxCell>
        <mxCell id="JB2oRVYy7NncThmiPTXl-93" value="" style="html=1;verticalAlign=bottom;endArrow=block;labelBackgroundColor=none;fontFamily=Verdana;fontSize=12;edgeStyle=elbowEdgeStyle;elbow=vertical;" edge="1" parent="JB2oRVYy7NncThmiPTXl-46">
          <mxGeometry relative="1" as="geometry">
            <mxPoint x="-95" y="464.4999999999999" as="sourcePoint" />
            <mxPoint x="40" y="464.4999999999999" as="targetPoint" />
          </mxGeometry>
        </mxCell>
        <mxCell id="JB2oRVYy7NncThmiPTXl-94" value="10.連接資料庫" style="edgeLabel;html=1;align=center;verticalAlign=middle;resizable=0;points=[];" vertex="1" connectable="0" parent="JB2oRVYy7NncThmiPTXl-93">
          <mxGeometry x="-0.0493" y="2" relative="1" as="geometry">
            <mxPoint y="-8" as="offset" />
          </mxGeometry>
        </mxCell>
        <mxCell id="JB2oRVYy7NncThmiPTXl-51" value="1.進入公司車租借首頁" style="html=1;verticalAlign=bottom;endArrow=block;labelBackgroundColor=none;fontFamily=Verdana;fontSize=12;edgeStyle=elbowEdgeStyle;elbow=vertical;exitX=1.32;exitY=0.127;exitDx=0;exitDy=0;exitPerimeter=0;" edge="1" parent="1">
          <mxGeometry x="0.0245" y="10" relative="1" as="geometry">
            <mxPoint x="150.00000000000006" y="509.85" as="sourcePoint" />
            <mxPoint x="286.3" y="509.5" as="targetPoint" />
            <mxPoint as="offset" />
          </mxGeometry>
        </mxCell>
        <mxCell id="JB2oRVYy7NncThmiPTXl-52" value="Actor" style="shape=umlActor;verticalLabelPosition=bottom;verticalAlign=top;html=1;outlineConnect=0;" vertex="1" parent="1">
          <mxGeometry x="130" y="370" width="30" height="60" as="geometry" />
        </mxCell>
        <mxCell id="JB2oRVYy7NncThmiPTXl-53" value="Model&lt;br&gt;CarUsageHitory" style="shape=umlLifeline;perimeter=lifelinePerimeter;whiteSpace=wrap;html=1;container=1;collapsible=0;recursiveResize=0;outlineConnect=0;rounded=1;shadow=0;comic=0;labelBackgroundColor=none;strokeWidth=1;fontFamily=Verdana;fontSize=12;align=center;" vertex="1" parent="1">
          <mxGeometry x="690" y="390" width="120" height="580" as="geometry" />
        </mxCell>
        <mxCell id="JB2oRVYy7NncThmiPTXl-54" value="" style="html=1;verticalAlign=bottom;endArrow=block;labelBackgroundColor=none;fontFamily=Verdana;fontSize=12;edgeStyle=elbowEdgeStyle;elbow=vertical;exitX=0.9;exitY=0.237;exitDx=0;exitDy=0;exitPerimeter=0;" edge="1" parent="JB2oRVYy7NncThmiPTXl-53">
          <mxGeometry relative="1" as="geometry">
            <mxPoint x="65" y="150" as="sourcePoint" />
            <mxPoint x="200" y="151" as="targetPoint" />
          </mxGeometry>
        </mxCell>
        <mxCell id="JB2oRVYy7NncThmiPTXl-55" value="4.連接資料庫" style="edgeLabel;html=1;align=center;verticalAlign=middle;resizable=0;points=[];" vertex="1" connectable="0" parent="JB2oRVYy7NncThmiPTXl-54">
          <mxGeometry x="-0.0493" y="2" relative="1" as="geometry">
            <mxPoint y="-8" as="offset" />
          </mxGeometry>
        </mxCell>
        <mxCell id="JB2oRVYy7NncThmiPTXl-56" value="" style="html=1;points=[];perimeter=orthogonalPerimeter;rounded=0;shadow=0;comic=0;labelBackgroundColor=none;strokeWidth=1;fontFamily=Verdana;fontSize=12;align=center;" vertex="1" parent="JB2oRVYy7NncThmiPTXl-53">
          <mxGeometry x="55" y="110" width="10" height="100" as="geometry" />
        </mxCell>
        <mxCell id="JB2oRVYy7NncThmiPTXl-68" value="return" style="html=1;verticalAlign=bottom;endArrow=open;dashed=1;endSize=8;labelBackgroundColor=none;fontFamily=Verdana;fontSize=12;" edge="1" parent="JB2oRVYy7NncThmiPTXl-53">
          <mxGeometry x="-0.0734" y="-10" relative="1" as="geometry">
            <mxPoint x="-98" y="192" as="targetPoint" />
            <mxPoint x="51" y="192.5" as="sourcePoint" />
            <mxPoint as="offset" />
          </mxGeometry>
        </mxCell>
        <mxCell id="JB2oRVYy7NncThmiPTXl-91" value="7.ApplicationDbContext.Remove" style="html=1;verticalAlign=bottom;endArrow=block;labelBackgroundColor=none;fontFamily=Verdana;fontSize=12;edgeStyle=elbowEdgeStyle;elbow=vertical;" edge="1" parent="JB2oRVYy7NncThmiPTXl-53">
          <mxGeometry x="0.4753" y="10" relative="1" as="geometry">
            <mxPoint x="105" y="280" as="sourcePoint" />
            <mxPoint x="209.5" y="280" as="targetPoint" />
            <Array as="points">
              <mxPoint x="-105" y="280" />
              <mxPoint x="-95" y="350" />
            </Array>
            <mxPoint as="offset" />
          </mxGeometry>
        </mxCell>
        <mxCell id="JB2oRVYy7NncThmiPTXl-95" value="return" style="html=1;verticalAlign=bottom;endArrow=open;dashed=1;endSize=8;labelBackgroundColor=none;fontFamily=Verdana;fontSize=12;" edge="1" parent="JB2oRVYy7NncThmiPTXl-53">
          <mxGeometry x="-0.0345" y="20" relative="1" as="geometry">
            <mxPoint x="65" y="490" as="targetPoint" />
            <mxPoint x="205" y="490" as="sourcePoint" />
            <mxPoint as="offset" />
          </mxGeometry>
        </mxCell>
        <mxCell id="JB2oRVYy7NncThmiPTXl-67" value="" style="html=1;points=[];perimeter=orthogonalPerimeter;rounded=0;shadow=0;comic=0;labelBackgroundColor=none;strokeWidth=1;fontFamily=Verdana;fontSize=12;align=center;" vertex="1" parent="JB2oRVYy7NncThmiPTXl-53">
          <mxGeometry x="55" y="420" width="10" height="110" as="geometry" />
        </mxCell>
        <mxCell id="JB2oRVYy7NncThmiPTXl-57" value="" style="endArrow=none;dashed=1;html=1;rounded=0;exitX=0.52;exitY=0.011;exitDx=0;exitDy=0;exitPerimeter=0;" edge="1" parent="1" source="JB2oRVYy7NncThmiPTXl-86" target="JB2oRVYy7NncThmiPTXl-52">
          <mxGeometry width="50" height="50" relative="1" as="geometry">
            <mxPoint x="140" y="490" as="sourcePoint" />
            <mxPoint x="143" y="440" as="targetPoint" />
          </mxGeometry>
        </mxCell>
        <mxCell id="JB2oRVYy7NncThmiPTXl-58" value="公司車租借Delete" style="shape=umlLifeline;perimeter=lifelinePerimeter;whiteSpace=wrap;html=1;container=1;collapsible=0;recursiveResize=0;outlineConnect=0;rounded=1;shadow=0;comic=0;labelBackgroundColor=none;strokeWidth=1;fontFamily=Verdana;fontSize=12;align=center;" vertex="1" parent="1">
          <mxGeometry x="370" y="390" width="120" height="340" as="geometry" />
        </mxCell>
        <mxCell id="JB2oRVYy7NncThmiPTXl-59" value="6.提交刪除需求" style="html=1;verticalAlign=bottom;endArrow=block;labelBackgroundColor=none;fontFamily=Verdana;fontSize=12;edgeStyle=elbowEdgeStyle;elbow=vertical;exitX=1.32;exitY=0.127;exitDx=0;exitDy=0;exitPerimeter=0;" edge="1" parent="JB2oRVYy7NncThmiPTXl-58">
          <mxGeometry x="0.0245" y="10" relative="1" as="geometry">
            <mxPoint x="61.00000000000006" y="260.35" as="sourcePoint" />
            <mxPoint x="205.5" y="260.8823529411766" as="targetPoint" />
            <mxPoint as="offset" />
          </mxGeometry>
        </mxCell>
        <mxCell id="JB2oRVYy7NncThmiPTXl-61" value="" style="html=1;points=[];perimeter=orthogonalPerimeter;rounded=0;shadow=0;comic=0;labelBackgroundColor=none;strokeWidth=1;fontFamily=Verdana;fontSize=12;align=center;" vertex="1" parent="1">
          <mxGeometry x="425" y="620" width="10" height="90" as="geometry" />
        </mxCell>
        <mxCell id="JB2oRVYy7NncThmiPTXl-62" value="5.進入Delete&lt;br&gt;頁面" style="html=1;verticalAlign=bottom;endArrow=block;labelBackgroundColor=none;fontFamily=Verdana;fontSize=12;edgeStyle=elbowEdgeStyle;elbow=vertical;exitX=1.32;exitY=0.127;exitDx=0;exitDy=0;exitPerimeter=0;" edge="1" parent="1">
          <mxGeometry x="0.0251" y="10" relative="1" as="geometry">
            <mxPoint x="298.70000000000005" y="640.35" as="sourcePoint" />
            <mxPoint x="420" y="640" as="targetPoint" />
            <mxPoint as="offset" />
          </mxGeometry>
        </mxCell>
        <mxCell id="JB2oRVYy7NncThmiPTXl-73" value="return" style="html=1;verticalAlign=bottom;endArrow=open;dashed=1;endSize=8;labelBackgroundColor=none;fontFamily=Verdana;fontSize=12;" edge="1" parent="1">
          <mxGeometry x="-0.0402" y="20" relative="1" as="geometry">
            <mxPoint x="590.5" y="720" as="targetPoint" />
            <mxPoint x="890" y="720" as="sourcePoint" />
            <mxPoint as="offset" />
          </mxGeometry>
        </mxCell>
        <mxCell id="JB2oRVYy7NncThmiPTXl-79" value="公司車租借Index" style="shape=umlLifeline;perimeter=lifelinePerimeter;whiteSpace=wrap;html=1;container=1;collapsible=0;recursiveResize=0;outlineConnect=0;rounded=1;shadow=0;comic=0;labelBackgroundColor=none;strokeWidth=1;fontFamily=Verdana;fontSize=12;align=center;" vertex="1" parent="1">
          <mxGeometry x="240" y="390" width="100" height="650" as="geometry" />
        </mxCell>
        <mxCell id="JB2oRVYy7NncThmiPTXl-80" value="2.經過Controller Index" style="html=1;verticalAlign=bottom;endArrow=block;labelBackgroundColor=none;fontFamily=Verdana;fontSize=12;edgeStyle=elbowEdgeStyle;elbow=vertical;" edge="1" parent="JB2oRVYy7NncThmiPTXl-79">
          <mxGeometry x="0.417" y="10" relative="1" as="geometry">
            <mxPoint x="52" y="130" as="sourcePoint" />
            <mxPoint x="342" y="130" as="targetPoint" />
            <mxPoint as="offset" />
          </mxGeometry>
        </mxCell>
        <mxCell id="JB2oRVYy7NncThmiPTXl-82" value="" style="html=1;points=[];perimeter=orthogonalPerimeter;rounded=0;shadow=0;comic=0;labelBackgroundColor=none;strokeWidth=1;fontFamily=Verdana;fontSize=12;align=center;" vertex="1" parent="JB2oRVYy7NncThmiPTXl-79">
          <mxGeometry x="45" y="100" width="10" height="370" as="geometry" />
        </mxCell>
        <mxCell id="JB2oRVYy7NncThmiPTXl-83" value="8.經過Controller Index" style="html=1;verticalAlign=bottom;endArrow=block;labelBackgroundColor=none;fontFamily=Verdana;fontSize=12;edgeStyle=elbowEdgeStyle;elbow=vertical;" edge="1" parent="1">
          <mxGeometry x="0.417" y="10" relative="1" as="geometry">
            <mxPoint x="300" y="820.0000000000001" as="sourcePoint" />
            <mxPoint x="575" y="820.0000000000001" as="targetPoint" />
            <mxPoint as="offset" />
          </mxGeometry>
        </mxCell>
        <mxCell id="JB2oRVYy7NncThmiPTXl-85" value="" style="endArrow=none;dashed=1;html=1;rounded=0;exitX=0.52;exitY=0.011;exitDx=0;exitDy=0;exitPerimeter=0;" edge="1" parent="1">
          <mxGeometry width="50" height="50" relative="1" as="geometry">
            <mxPoint x="144.40999999999997" y="1040" as="sourcePoint" />
            <mxPoint x="144.40999999999997" y="970" as="targetPoint" />
          </mxGeometry>
        </mxCell>
        <mxCell id="JB2oRVYy7NncThmiPTXl-86" value="" style="html=1;points=[];perimeter=orthogonalPerimeter;rounded=0;shadow=0;comic=0;labelBackgroundColor=none;strokeWidth=1;fontFamily=Verdana;fontSize=12;align=center;" vertex="1" parent="1">
          <mxGeometry x="140" y="490" width="10" height="490" as="geometry" />
        </mxCell>
        <mxCell id="JB2oRVYy7NncThmiPTXl-87" value="Controller&lt;br&gt;CarUseageHistory" style="shape=umlLifeline;perimeter=lifelinePerimeter;whiteSpace=wrap;html=1;container=1;collapsible=0;recursiveResize=0;outlineConnect=0;rounded=1;shadow=0;comic=0;labelBackgroundColor=none;strokeWidth=1;fontFamily=Verdana;fontSize=12;align=center;" vertex="1" parent="1">
          <mxGeometry x="520" y="390" width="130" height="600" as="geometry" />
        </mxCell>
        <mxCell id="JB2oRVYy7NncThmiPTXl-88" value="3.經過Model" style="html=1;verticalAlign=bottom;endArrow=block;labelBackgroundColor=none;fontFamily=Verdana;fontSize=12;edgeStyle=elbowEdgeStyle;elbow=vertical;exitX=1.121;exitY=0.358;exitDx=0;exitDy=0;exitPerimeter=0;" edge="1" parent="JB2oRVYy7NncThmiPTXl-87">
          <mxGeometry x="-0.2002" y="20" relative="1" as="geometry">
            <mxPoint x="70" y="140.17999999999995" as="sourcePoint" />
            <mxPoint x="220" y="140" as="targetPoint" />
            <Array as="points" />
            <mxPoint as="offset" />
          </mxGeometry>
        </mxCell>
        <mxCell id="JB2oRVYy7NncThmiPTXl-89" value="" style="html=1;points=[];perimeter=orthogonalPerimeter;rounded=0;shadow=0;comic=0;labelBackgroundColor=none;strokeWidth=1;fontFamily=Verdana;fontSize=12;align=center;" vertex="1" parent="JB2oRVYy7NncThmiPTXl-87">
          <mxGeometry x="60" y="100" width="10" height="110" as="geometry" />
        </mxCell>
        <mxCell id="JB2oRVYy7NncThmiPTXl-90" value="" style="html=1;points=[];perimeter=orthogonalPerimeter;rounded=0;shadow=0;comic=0;labelBackgroundColor=none;strokeWidth=1;fontFamily=Verdana;fontSize=12;align=center;" vertex="1" parent="JB2oRVYy7NncThmiPTXl-87">
          <mxGeometry x="60" y="250" width="10" height="130" as="geometry" />
        </mxCell>
        <mxCell id="JB2oRVYy7NncThmiPTXl-81" value="return" style="html=1;verticalAlign=bottom;endArrow=open;dashed=1;endSize=8;labelBackgroundColor=none;fontFamily=Verdana;fontSize=12;" edge="1" parent="JB2oRVYy7NncThmiPTXl-87">
          <mxGeometry x="-0.4507" y="1" relative="1" as="geometry">
            <mxPoint x="-225" y="200" as="targetPoint" />
            <mxPoint x="60" y="200" as="sourcePoint" />
            <mxPoint as="offset" />
          </mxGeometry>
        </mxCell>
        <mxCell id="JB2oRVYy7NncThmiPTXl-111" value="" style="html=1;verticalAlign=bottom;endArrow=block;labelBackgroundColor=none;fontFamily=Verdana;fontSize=12;edgeStyle=elbowEdgeStyle;elbow=vertical;" edge="1" parent="JB2oRVYy7NncThmiPTXl-87" target="JB2oRVYy7NncThmiPTXl-53">
          <mxGeometry relative="1" as="geometry">
            <mxPoint x="70" y="435.9999999999999" as="sourcePoint" />
            <mxPoint x="205" y="435.9999999999999" as="targetPoint" />
          </mxGeometry>
        </mxCell>
        <mxCell id="JB2oRVYy7NncThmiPTXl-112" value="9.經過Model" style="edgeLabel;html=1;align=center;verticalAlign=middle;resizable=0;points=[];" vertex="1" connectable="0" parent="JB2oRVYy7NncThmiPTXl-111">
          <mxGeometry x="-0.0493" y="2" relative="1" as="geometry">
            <mxPoint y="-8" as="offset" />
          </mxGeometry>
        </mxCell>
        <mxCell id="JB2oRVYy7NncThmiPTXl-113" value="return" style="html=1;verticalAlign=bottom;endArrow=open;dashed=1;endSize=8;labelBackgroundColor=none;fontFamily=Verdana;fontSize=12;" edge="1" parent="JB2oRVYy7NncThmiPTXl-87" source="JB2oRVYy7NncThmiPTXl-53">
          <mxGeometry x="-0.0411" y="20" relative="1" as="geometry">
            <mxPoint x="70" y="510" as="targetPoint" />
            <mxPoint x="210" y="510" as="sourcePoint" />
            <mxPoint as="offset" />
          </mxGeometry>
        </mxCell>
        <mxCell id="JB2oRVYy7NncThmiPTXl-104" value="" style="html=1;points=[];perimeter=orthogonalPerimeter;rounded=0;shadow=0;comic=0;labelBackgroundColor=none;strokeWidth=1;fontFamily=Verdana;fontSize=12;align=center;" vertex="1" parent="JB2oRVYy7NncThmiPTXl-87">
          <mxGeometry x="60" y="400" width="10" height="170" as="geometry" />
        </mxCell>
        <mxCell id="JB2oRVYy7NncThmiPTXl-96" value="return" style="html=1;verticalAlign=bottom;endArrow=open;dashed=1;endSize=8;labelBackgroundColor=none;fontFamily=Verdana;fontSize=12;" edge="1" parent="1" source="JB2oRVYy7NncThmiPTXl-79">
          <mxGeometry relative="1" as="geometry">
            <mxPoint x="150" y="940.84" as="targetPoint" />
            <mxPoint x="282.18000000000006" y="920.0000000000001" as="sourcePoint" />
            <mxPoint as="offset" />
            <Array as="points" />
          </mxGeometry>
        </mxCell>
        <mxCell id="JB2oRVYy7NncThmiPTXl-97" value="return" style="html=1;verticalAlign=bottom;endArrow=open;dashed=1;endSize=8;labelBackgroundColor=none;fontFamily=Verdana;fontSize=12;" edge="1" parent="1">
          <mxGeometry x="-0.0402" y="20" relative="1" as="geometry">
            <mxPoint x="300" y="750" as="targetPoint" />
            <mxPoint x="580" y="750" as="sourcePoint" />
            <mxPoint as="offset" />
          </mxGeometry>
        </mxCell>
        <mxCell id="JB2oRVYy7NncThmiPTXl-48" value="return" style="html=1;verticalAlign=bottom;endArrow=open;dashed=1;endSize=8;labelBackgroundColor=none;fontFamily=Verdana;fontSize=12;entryX=1.303;entryY=0.788;entryDx=0;entryDy=0;entryPerimeter=0;exitX=0.176;exitY=0.841;exitDx=0;exitDy=0;exitPerimeter=0;" edge="1" parent="1">
          <mxGeometry relative="1" as="geometry">
            <mxPoint x="755.03" y="571.6800000000001" as="targetPoint" />
            <mxPoint x="893.7600000000002" y="572.28" as="sourcePoint" />
            <mxPoint as="offset" />
          </mxGeometry>
        </mxCell>
        <mxCell id="JB2oRVYy7NncThmiPTXl-60" value="return" style="html=1;verticalAlign=bottom;endArrow=open;dashed=1;endSize=8;labelBackgroundColor=none;fontFamily=Verdana;fontSize=12;" edge="1" parent="1" source="JB2oRVYy7NncThmiPTXl-109">
          <mxGeometry x="NaN" y="145" relative="1" as="geometry">
            <mxPoint x="295" y="930" as="targetPoint" />
            <mxPoint x="584.5" y="930.4999999999998" as="sourcePoint" />
            <mxPoint x="145" y="-10" as="offset" />
            <Array as="points" />
          </mxGeometry>
        </mxCell>
        <mxCell id="JB2oRVYy7NncThmiPTXl-114" value="" style="html=1;verticalAlign=bottom;endArrow=open;dashed=1;endSize=8;labelBackgroundColor=none;fontFamily=Verdana;fontSize=12;" edge="1" parent="1" target="JB2oRVYy7NncThmiPTXl-109">
          <mxGeometry x="-0.0012" y="-20" relative="1" as="geometry">
            <mxPoint x="295" y="930" as="targetPoint" />
            <mxPoint x="584.5" y="930.4999999999998" as="sourcePoint" />
            <mxPoint as="offset" />
            <Array as="points">
              <mxPoint x="440" y="930.5" />
            </Array>
          </mxGeometry>
        </mxCell>
        <mxCell id="JB2oRVYy7NncThmiPTXl-109" value="" style="html=1;points=[];perimeter=orthogonalPerimeter;rounded=0;shadow=0;comic=0;labelBackgroundColor=none;strokeWidth=1;fontFamily=Verdana;fontSize=12;align=center;" vertex="1" parent="1">
          <mxGeometry x="285" y="900" width="10" height="70" as="geometry" />
        </mxCell>
      </root>
    </mxGraphModel>
  </diagram>
</mxfile>
